<svg viewBox="0 0 1280 388" fill="none" xmlns="http://www.w3.org/2000/svg">
<path d="M602.705 0.600006C640.305 3.90001 657.905 6.90001 684.505 14.7L696.805 18.3L690.305 24.9C686.705 28.6 683.705 32 683.705 32.6C683.705 33.1 691.705 38.2 701.405 43.9C756.705 76.2 806.905 108.7 822.205 122.1L827.605 126.8L837.305 127.5C859.405 129.2 881.805 124.9 894.505 116.4L900.005 112.8L925.605 115.4C998.405 123.1 1059.01 132 1088.61 139.6C1095.91 141.5 1104.31 143 1107.11 143C1124.21 143 1150.51 154.9 1171.51 172.2C1177.31 177 1180.21 178.6 1186.01 180.2C1203.61 185.2 1224.01 194.6 1239.31 204.8C1249.81 211.9 1263.81 223.9 1269.21 230.5L1273.01 235.1L1271.81 257.1C1271.11 269.2 1270.21 283 1269.71 287.8C1269.01 294.2 1269.11 296.9 1270.01 298.1C1270.71 299 1273.11 302.5 1275.41 305.8L1279.71 311.9L1273.91 314.5C1244.21 328.2 1193.51 337.8 1141.51 339.7L1123.81 340.3L1123.51 330.9L1123.21 321.5L1118.51 320.8C1111.41 319.6 1109.21 320.9 1105.81 328.5C1096.11 349.9 1073.11 371.5 1050.61 380.3C1025.01 390.4 995.605 390.3 970.905 380.1C949.705 371.3 929.105 352 918.505 331.1C916.405 326.9 914.205 322.9 913.605 322.2C912.905 321.3 910.205 321 904.905 321.2L897.205 321.5L897.405 328.2L897.605 334.8L891.405 335.4C881.905 336.2 402.905 338.3 401.705 337.5C401.005 337.1 400.705 334.7 400.805 331.6C401.005 328.8 400.805 325.9 400.405 325.2C399.905 324.4 396.905 324 391.705 324H383.805L379.705 331.7C366.305 357.5 341.505 377.5 314.305 384.5C297.705 388.7 276.605 388.9 260.705 384.9C250.205 382.3 234.205 374.8 226.105 368.7C213.805 359.3 202.105 345.5 194.405 331L191.205 324.9L178.405 324.3C164.105 323.7 162.705 324.2 162.705 329.6C162.705 332.7 162.505 332.9 159.905 332.5C158.405 332.2 143.905 330.2 127.705 328C55.1053 318.1 38.0053 315.4 34.5053 313.2C30.3053 310.6 7.2053 285.9 5.0053 281.7C2.2053 276.2 1.8053 272.2 3.4053 266.1C5.7053 257.7 5.2053 242.2 2.2053 222C-0.894697 202.3 -0.694697 194.8 2.6053 188C4.0053 185.1 10.1053 178.4 19.2053 169.5C31.7053 157.4 34.0053 154.6 36.7053 148.7C38.3053 145 39.9053 142 40.1053 142C40.3053 142 51.0053 139.3 63.8053 136L87.2053 130.1V125V120H93.2053C96.5053 120 102.305 119.7 106.005 119.3L112.805 118.7L112.605 113.4C112.405 110.4 112.505 107.8 112.805 107.6C113.005 107.4 118.105 107.8 124.205 108.6C130.205 109.3 135.805 109.9 136.505 110C137.505 110 137.805 108.2 137.605 102.7C137.505 98.8 137.705 95.3 138.105 95.1C138.505 94.9 143.205 95.5 148.605 96.5L158.405 98.3L179.805 90.8C267.805 59.8 377.805 28.4 446.905 14.6C494.905 4.90001 528.505 1.10001 569.705 0.600006C585.405 0.400006 600.205 0.400006 602.705 0.600006ZM544.705 30C516.005 31.7 479.505 36.1 476.905 38.3C476.105 38.9 475.805 40.3 476.205 41.9C477.305 46.3 500.805 121.4 501.305 121.9C501.705 122.3 691.505 128.9 705.905 129H714.605L715.205 125.2C718.205 107.1 727.705 95 738.905 95C752.905 95 771.305 106.9 784.405 124.5C789.305 131.1 790.605 131.8 798.905 131.9C805.005 132 806.705 130.9 804.505 128.3C802.305 125.6 718.205 70 704.505 62.2C665.605 39.9 641.705 33 594.205 30.1C574.105 28.9 564.505 28.9 544.705 30ZM424.305 49.1C376.105 61.2 336.905 74 314.505 85C291.705 96.1 288.505 102.7 303.005 108C308.905 110.1 399.105 117.2 437.905 118.7C454.205 119.3 455.705 119.2 456.305 117.6C457.005 115.8 452.005 48 451.005 45.4C450.105 43.1 445.305 43.8 424.305 49.1ZM490.805 125.7C488.505 128.4 484.805 134.3 482.505 138.9L478.205 147.3V158.4C478.305 177.7 484.205 196.5 499.605 226.6C509.805 246.4 515.205 254.3 526.605 266.3C538.805 278.9 549.205 286.7 563.105 293.5C580.705 302.2 585.405 303.1 618.205 304.1C657.105 305.2 816.605 308.5 836.705 308.5H853.205L853.905 302.5C854.805 295.6 859.205 237.4 860.905 210.2C862.705 182.2 860.205 168.7 850.005 151.9C841.805 138.3 830.605 126.8 828.105 129.3C827.705 129.7 830.305 133 833.905 136.8C850.405 153.8 858.405 174.5 857.505 197.3C856.405 222.1 849.505 301.5 848.305 302.8C847.205 303.9 834.205 303.9 773.605 302.6C733.205 301.7 679.505 300.8 654.205 300.5C606.705 299.8 594.505 299.1 584.205 296.5C558.805 289.8 532.205 270.3 516.805 247C506.305 231.1 488.405 192.7 484.605 178.1C482.405 169.3 482.105 154.9 484.105 147.5C486.005 140.3 489.305 134.4 494.305 129C496.705 126.4 498.705 123.6 498.705 122.6C498.705 119.5 494.905 121 490.805 125.7ZM1101.81 145.4C1100.81 146.6 1101.81 148.2 1106.91 154.2C1120.51 169.7 1141.81 185.6 1162.21 195.5C1179.31 203.7 1198.31 209 1200.21 206.1C1201.31 204.2 1196.01 197.4 1186.41 188.6C1162.91 167.1 1137.81 152.5 1113.21 146C1104.61 143.7 1103.31 143.6 1101.81 145.4ZM33.7053 164.1C31.3053 169.2 29.4053 174.7 29.3053 176.8L29.2053 180.5L41.2053 181.1C47.8053 181.5 68.1053 181.8 86.2053 181.9C122.305 182 124.105 181.8 138.105 176C147.305 172.1 152.205 169.1 151.105 168C150.605 167.5 135.805 165.5 118.205 163.5C100.605 161.4 77.4053 158.8 66.7053 157.5C56.0053 156.3 45.1053 155.2 42.6053 155.1L38.0053 155L33.7053 164.1ZM1004.01 198C989.805 199.9 977.705 204.6 964.005 213.6C953.405 220.5 946.405 227.5 940.205 237.4C918.105 272.9 923.805 314 955.205 345.6C963.005 353.5 974.505 360 987.705 364.2C998.205 367.4 1021.31 367.5 1032.91 364.3C1051.71 359 1061.71 353.2 1073.11 340.9C1099.51 312.3 1103.71 275.9 1084.91 239.5C1076.81 223.9 1056.31 207.6 1036.71 201.1C1025.11 197.3 1015.91 196.5 1004.01 198ZM275.605 198C232.705 204.2 200.305 244 203.005 287C205.605 327.3 232.105 358.3 271.205 366.5C282.405 368.9 300.305 368.9 308.705 366.5C342.405 357.1 369.705 324.9 372.405 291.3C373.705 275.6 368.505 254 360.005 239.2C347.005 216.8 326.505 203.1 298.905 198.5C289.305 196.9 284.005 196.8 275.605 198ZM1230.51 236.1C1219.61 238.4 1210.81 245 1206.11 254.2C1204.81 256.8 1203.71 259.4 1203.71 260C1203.71 260.6 1209.21 261 1219.21 261H1234.71V264V267.1L1247.41 266.8L1260.11 266.5L1260.91 262.5C1261.41 260.3 1262.91 257.5 1264.21 256.2C1268.81 251.9 1266.81 243.3 1260.41 239.5C1253.11 235.2 1241.31 233.8 1230.51 236.1ZM1234.61 271.7C1234.01 272.3 1233.41 275.5 1233.31 278.7L1233.21 284.5L1244.41 284.8C1257.11 285.1 1256.91 285.2 1258.21 276.6C1258.71 273 1258.51 271.5 1257.51 270.8C1255.61 269.5 1236.01 270.3 1234.61 271.7ZM1234.71 289C1234.71 290.9 1237.71 297.4 1239.51 299.3C1241.71 301.7 1248.01 305 1250.51 305C1252.11 305 1252.71 303.7 1254.01 297.2C1254.81 293 1255.31 289.2 1255.01 288.7C1254.31 287.6 1234.71 287.8 1234.71 289Z" fill="current"/>
<path d="M1027.61 205.5C1063.41 213.3 1083.61 235.3 1089.21 272.7C1091.01 284.7 1091.01 291.3 1089.31 301C1084.21 329.1 1064.31 349.1 1032.21 358.6C1024.61 360.9 1021.31 361.3 1011.21 361.3C996.605 361.3 987.505 359.1 973.705 352.4C965.605 348.4 962.905 346.4 955.205 338.6C950.205 333.6 944.705 326.9 942.805 323.8C935.605 311.4 930.905 292.3 932.105 279.9C934.505 256.1 945.205 234.7 961.205 221.7C969.105 215.3 983.105 208.6 993.705 206C1003.71 203.7 1017.91 203.5 1027.61 205.5Z" fill="black"/>
<path d="M301.605 205.5C320.005 209.7 331.305 215.6 342.805 227C350.105 234.3 352.105 237 356.605 246C363.505 260 366.105 272 365.405 287.5C365.105 296.7 364.405 299.9 361.805 307.1C356.805 320.5 350.605 330.4 340.805 340.1C327.705 353.1 314.505 359 294.205 360.9C253.905 364.8 220.505 342.6 210.605 305.5C209.005 299.3 208.505 294.4 208.405 284C208.305 267.7 209.905 260.4 216.205 247.5C225.905 227.5 241.205 214.5 263.705 207C272.205 204.1 292.105 203.3 301.605 205.5Z" fill="#010000"/>
<path d="M703.205 20.9C712.505 24.8 758.105 46.7 841.705 87.7C860.705 97 880.205 106.4 885.005 108.5L893.905 112.5L888.905 114.8C877.705 119.9 852.805 123.8 839.005 122.7C832.805 122.2 832.405 122 803.605 103C764.405 77.2 728.405 54.2 710.205 43.5C701.905 38.7 694.605 34.1 693.805 33.4C692.605 32.3 693.005 31.2 696.305 26.1C698.405 22.7 700.405 20 700.705 20.1C701.005 20.1 702.105 20.5 703.205 20.9Z" fill="#010000"/>
</svg>
